<?xml version="1.0"?>
<svg version="1.1" xmlns="http://www.w3.org/2000/svg" width="100" height="42" style=""><path fill="#3388c4" d=""/><path fill="#22baa8" d="M25.888,39.72q-0.928,0.544-2.288,0.544t-2.08-0.896t-1.232-2.848q-0.576,0.576-0.8,0.576q-0.16,0-0.16-0.224t0.16-0.384q1.056-1.312,3.584-3.776l4.032-3.776q1.728-1.632,2.048-1.632q1.024,0,1.024,0.768q0,0.384-0.304,0.752t-0.448,0.576t-0.304,0.4q-0.576,0.992-1.168,4.096t-0.912,4.32q2.656-0.032,5.472-3.456q0.32-0.32,0.48-0.32t0.16,0.208t-0.288,0.56q-1.856,2.176-3.456,3.04q-0.96,0.48-2.496,0.8z M21.568,36.168q0,1.088,0.72,1.776t1.616,0.688t1.376-0.352q0.64-0.352,1.264-2.944t0.752-4.576l0.128-1.088q-1.76,1.312-3.76,3.392t-2.064,2.752q-0.032,0.192-0.032,0.352z M41.25344,29.896l4.608-0.064q0.096,0.064,0.096,0.096q0,0.288-3.984,0.8t-4.304,0.608q-0.608,0.544-2.24,3.248t-1.632,3.952q0,1.184,1.632,1.184q0.768,0,2.016-0.48t1.92-0.896q1.792-1.12,3.84-3.296q0.448-0.448,0.608-0.448q0.096,0,0.096,0.192t-0.48,0.768q-1.664,2.048-3.744,3.296q-2.496,1.536-4.768,1.536q-0.992,0-1.616-0.432t-0.624-1.744t1.152-3.6t1.76-3.408q-0.448,0.096-0.768,0.096q-0.928,0-0.928-0.736q0-0.544,0.768-0.768q0.096,0,0.288-0.032l1.856,0q0.576-0.736,1.312-1.696q0.896-1.152,1.216-1.152t0.8,0.256t0.48,0.608t-1.536,2.08q0.832,0.032,2.176,0.032z M52.17088,33.416q0,1.12-2.144,3.744q-2.528,3.104-4.32,3.104l-0.512,0q-0.832,0-1.312-0.864q-0.384-0.608-0.384-1.344q0-1.92,2.8-5.392t4.528-3.472q1.632,0,1.632,1.728q0,0.448-0.16,1.152q0.032,0.096,0.608,0.096t1.76-0.608q-0.032,0.544-2.528,1.568q0.032,0.128,0.032,0.288z M50.09088,31.752q-1.088,0-3.088,2.56t-2,3.776t0.768,1.216q1.376,0,3.488-2.496t2.112-3.584q-0.512-0.288-1.28-1.472z M60.75232,40.36q-2.4,0-2.4-2.656q0-1.344,0.704-2.944t1.536-2.688q-0.16,0.032-0.416,0.032q-0.768,0-1.28-1.088l-2.368,3.072q-1.984,2.464-2.304,2.464q-0.16,0-0.16-0.128q0-0.32,0.544-0.928q2.784-3.232,3.936-5.472q0.736-2.784,1.856-2.784q0.736,0,0.736,0.64t-0.8,1.632l-0.768,1.024q0,0.672,0.992,0.672q0.576,0,1.28-0.416l0.832-0.512q0.064-0.032,0.32-0.032t0.544,0.32t0.192,0.576l-2.208,2.784q-2.048,2.624-2.048,4.144t1.408,1.52q1.472,0,3.616-1.568q1.28-0.928,2.336-2.08q0.992-1.152,1.088-1.152q0.224,0,0.224,0.24t-0.288,0.56l-1.024,1.152q-0.864,0.896-1.92,1.728q-2.528,1.888-4.16,1.888z M70.54976,39.56q1.056,0,2.72-1.12t3.232-3.04q0.384-0.512,0.608-0.512t0.224,0.192t-1.312,1.664q-3.2,3.52-5.344,3.52q-1.056,0-1.792-0.496t-0.736-1.536t0.544-2.416q0.928-2.176,2.976-5.472q3.744-6.08,5.312-6.08q0.32,0,0.656,0.24t0.368,0.528q-0.736,0.992-2.832,3.808t-2.896,4.048t-1.2,1.84t-0.592,0.944t-0.448,0.88q-0.544,1.088-0.544,2.048t1.056,0.96z M88.0592,30.632l0.448-0.096q0.352,0,0.672,0.288t0.32,0.448t-1.984,3.088t-1.984,4.08q0,0.096,0.032,0.192q0.16,0.736,0.704,0.736q1.664,0,6.08-5.504q0.096-0.128,0.224-0.128t0.128,0.24t-0.288,0.624q-4.096,5.472-6.24,5.472q-0.288,0-0.544-0.096q-1.408-0.544-1.408-2.112q0-0.544,0.128-1.088l-1.984,1.92q-1.888,1.664-2.736,1.664t-1.616-0.544q-0.864-0.64-0.864-1.696q0-2.336,3.264-5.584t5.984-3.248q1.056,0,1.408,0.736q0.096,0.256,0.16,0.432t0.096,0.176z M78.4912,38.504q0,1.152,0.8,1.152q1.856,0,5.056-4.064l3.392-4.672q-0.256-0.448-0.832-0.448q-1.952,0-5.184,3.024t-3.232,5.008z"/></svg>
